<svg width="82" height="62" viewBox="0 0 82 62" fill="none" xmlns="http://www.w3.org/2000/svg">
<path d="M76.5015 61.8705H5.17441C2.40867 61.8705 0.0796204 59.6193 0.0796204 56.7872V5.37367C0.0796204 2.61418 2.33589 0.290405 5.17441 0.290405H76.5015C79.2673 0.290405 81.5963 2.54156 81.5963 5.37367V56.7872C81.5963 59.6193 79.34 61.8705 76.5015 61.8705Z" fill="#E3E3E3"/>
<path opacity="0.1" d="M10.2692 61.8706L40.7652 37.3983L40.9835 36.0912L9.54138 13.507L9.4686 60.7813L10.2692 61.8706Z" fill="#231F20"/>
<path d="M5.17441 61.8706C2.33589 61.8706 0.0796204 59.6194 0.0796204 56.7873V5.30112C0.0796204 2.46902 2.33589 1.96069 5.17441 1.96069C8.01294 1.96069 10.2692 2.54164 10.2692 5.30112V61.8706H5.17441Z" fill="#D54B3D"/>
<path d="M5.17441 2.68687C8.81355 2.68687 9.54138 3.77614 9.54138 5.30112V61.1444H5.17441C2.77258 61.1444 0.807448 59.1837 0.807448 56.7873V5.30112C0.807448 3.70353 1.53528 2.68687 5.17441 2.68687ZM5.17441 1.96069C2.33589 1.96069 0.0796204 2.54164 0.0796204 5.30112V56.7873C0.0796204 59.6194 2.33589 61.8706 5.17441 61.8706H10.2692V5.30112C10.2692 2.46902 8.01294 1.96069 5.17441 1.96069Z" fill="#D72B27"/>
<path d="M76.5015 61.8706H71.4067V5.15589C71.4067 2.32378 73.663 1.96069 76.5015 1.96069C79.34 1.96069 81.5963 2.32378 81.5963 5.15589V56.8599C81.5963 59.6194 79.34 61.8706 76.5015 61.8706Z" fill="#D54B3D"/>
<path d="M76.5015 2.68687C79.7767 2.68687 80.8685 3.34044 80.8685 5.15589V56.8599C80.8685 59.2563 78.9033 61.217 76.5015 61.217H72.1345V5.15589C72.1345 3.26782 73.2263 2.68687 76.5015 2.68687ZM76.5015 1.96069C73.663 1.96069 71.4067 2.32378 71.4067 5.15589V61.9432H76.5015C79.34 61.9432 81.5963 59.692 81.5963 56.8599V5.15589C81.5963 2.32378 79.34 1.96069 76.5015 1.96069Z" fill="#D72B27"/>
<path d="M54.6667 61.8706L0.506042 7.41275L3.35484 8.56892L41.0563 35.6554L81.5963 5.99561L81.5963 56.8599C81.5963 59.6194 79.34 61.8706 76.5015 61.8706H54.6667Z" fill="url(#paint0_linear)"/>
<path d="M40.7652 37.3983L2.26309 9.51297C0.00682393 7.84276 -0.648221 4.64756 1.02578 2.39641C2.69979 0.145247 5.97501 -0.363079 8.30406 1.30714L40.8379 24.908L73.5902 1.01666C75.8464 -0.653551 79.0489 -0.145225 80.7229 2.17855C82.3969 4.42971 81.8874 7.6249 79.5583 9.29512L40.7652 37.3983Z" fill="#D54B3D"/>
<path d="M76.5007 0.72618C77.8835 0.72618 79.1936 1.37974 80.067 2.54163C81.4499 4.50232 81.0132 7.18919 79.1208 8.64155L40.7643 36.5269L2.69896 8.93202C0.733822 7.47966 0.224343 4.72017 1.60722 2.8321C2.40783 1.74283 3.7907 1.01665 5.24635 1.01665C6.19253 1.01665 7.1387 1.30712 7.86653 1.88807L40.3276 25.4163L40.7643 25.7068L41.201 25.4163L73.8805 1.52498C74.6811 1.01665 75.5545 0.72618 76.5007 0.72618ZM76.5007 0C75.4817 0 74.39 0.290472 73.5166 0.944035L40.7643 24.8354L8.23045 1.23451C7.35705 0.580944 6.26531 0.290472 5.17357 0.290472C3.57235 0.290472 1.97113 1.01665 0.95217 2.3964C-0.64905 4.64756 0.00599453 7.84275 2.26226 9.51296L40.7643 37.4709L79.4848 9.29511C81.741 7.6249 82.2505 4.50232 80.6493 2.17854C79.6303 0.726181 78.1019 0 76.5007 0Z" fill="#D72B27"/>
<defs>
<linearGradient id="paint0_linear" x1="0.509197" y1="33.9318" x2="81.6224" y2="33.9318" gradientUnits="userSpaceOnUse">
<stop stop-opacity="0.1"/>
<stop offset="1" stop-opacity="0.2"/>
</linearGradient>
</defs>
</svg>
